<?xml version="1.0" encoding="utf-8"?>
<!-- Generator: Adobe Illustrator 18.0.0, SVG Export Plug-In . SVG Version: 6.00 Build 0)  -->
<!DOCTYPE svg PUBLIC "-//W3C//DTD SVG 1.1//EN" "http://www.w3.org/Graphics/SVG/1.1/DTD/svg11.dtd">
<svg version="1.1" id="Layer_1" xmlns="http://www.w3.org/2000/svg" xmlns:xlink="http://www.w3.org/1999/xlink" x="0px" y="0px"
	 viewBox="0 0 1400 980" enable-background="new 0 0 1400 980" xml:space="preserve">
<g>
	<rect fill="#FFFFFF" width="1400" height="980"/>
	<g>
		<circle fill="#F26C60" cx="199" cy="304" r="146"/>
		<circle fill="#0CB9A6" cx="533" cy="304" r="146"/>
		<circle fill="#FDD836" cx="867" cy="304" r="146"/>
		<circle fill="#5AC2EF" cx="1201" cy="304" r="146"/>
	</g>
	<g>
		<circle fill="#9076B6" cx="199" cy="676" r="146"/>
		<circle fill="#FAA62C" cx="533" cy="676" r="146"/>
		<circle fill="#F48FB2" cx="867" cy="676" r="146"/>
		<circle fill="#55707A" cx="1201" cy="676" r="146"/>
	</g>
	<path fill="#FFFFFF" d="M240.2,345.4L240.2,345.4l-87.1-0.1l-0.5-4.8h94.3c1.6,0,3-1,3.6-2.4l0.1,0l0.2-0.8c0,0,0,0,0,0l14-62.4
		l2.6-11.8l-0.6-0.1c-0.1-0.5-0.4-0.9-0.7-1.3c-0.8-0.9-1.9-1.5-3.1-1.5H144.3l-1.4-13.9c-0.2-2-1.9-3.6-4-3.6h-31.4v8h27.8
		l1.2,11.9l-0.1,0l0.2,2c0,0,0,0,0,0l7.5,72.2c0,0,0,0,0,0l0.1,0.8l0,0l0.8,8.3c-6.3,1.9-11,7.8-11,14.8c0,8.5,7,15.5,15.5,15.5
		s15.5-7,15.5-15.5c0-2.7-0.7-5.3-1.9-7.5h62.2c-1.2,2.2-1.9,4.8-1.9,7.5c0,8.5,7,15.5,15.5,15.5s15.5-7,15.5-15.5
		C254.4,352.7,248.1,346.1,240.2,345.4z M257.2,272.2l-13.6,60.3h-11.9l10.2-64.2h16.1L257.2,272.2z M223.7,332.6h-11.9l6-64.2h16.2
		L223.7,332.6z M203.7,332.6h-12l1.8-64.2h16.2L203.7,332.6z M183.7,332.6h-12l-2.5-64.2h16.2L183.7,332.6z M161.2,268.3l2.5,64.2
		h-12l-6.6-64.2H161.2z M157.1,360.8c0,4.1-3.4,7.5-7.5,7.5s-7.5-3.4-7.5-7.5s3.4-7.5,7.5-7.5S157.1,356.7,157.1,360.8z
		 M238.9,368.3c-4.1,0-7.5-3.4-7.5-7.5s3.4-7.5,7.5-7.5s7.5,3.4,7.5,7.5S243,368.3,238.9,368.3z"/>
	<path fill="#FFFFFF" d="M582.2,326.5l21.3-67c0.4-1.2,0.2-2.5-0.6-3.6c-0.8-1-2-1.6-3.2-1.6H481.9l-0.8-7.9c-0.2-2-1.9-3.6-4-3.6
		h-31.4v8h27.8l1.2,11.9l-0.1,0l7.8,75l0,0l0.8,8.3c-6.3,1.9-11,7.8-11,14.8c0,8.5,7,15.5,15.5,15.5s15.5-7,15.5-15.5
		c0-2.7-0.7-5.3-1.9-7.5h62.2c-1.2,2.2-1.9,4.8-1.9,7.5c0,8.5,7,15.5,15.5,15.5s15.5-7,15.5-15.5c0-8.1-6.3-14.8-14.2-15.4v-0.1
		h-87.1l-1.6-16h88.8C580.1,329.3,581.7,328.2,582.2,326.5z M495.3,360.8c0,4.1-3.4,7.5-7.5,7.5s-7.5-3.4-7.5-7.5s3.4-7.5,7.5-7.5
		S495.3,356.7,495.3,360.8z M584.6,360.8c0,4.1-3.4,7.5-7.5,7.5s-7.5-3.4-7.5-7.5s3.4-7.5,7.5-7.5S584.6,356.7,584.6,360.8z
		 M488.8,321.3l-6.1-59h111.5l-18.7,59H488.8z"/>
	<path fill="#FFFFFF" d="M917.2,326.5l21.3-67c0.4-1.2,0.2-2.5-0.6-3.6c-0.8-1-2-1.6-3.2-1.6H816.9l-0.8-7.9c-0.2-2-1.9-3.6-4-3.6
		h-31.4v8h27.8l1.2,11.9l-0.1,0l7.8,75l0,0l0.8,8.3c-6.3,1.9-11,7.8-11,14.8c0,8.5,7,15.5,15.5,15.5s15.5-7,15.5-15.5
		c0-2.7-0.7-5.3-1.9-7.5h62.2c-1.2,2.2-1.9,4.8-1.9,7.5c0,8.5,7,15.5,15.5,15.5s15.5-7,15.5-15.5c0-8.1-6.3-14.8-14.2-15.4v-0.1
		h-87.1l-1.6-16h88.8C915.1,329.3,916.7,328.2,917.2,326.5z M820,284.7h15.5l1.1,13.8h-15.2L820,284.7z M843.6,284.7h21.1l-0.6,13.8
		h-19.4L843.6,284.7z M865,276.7h-22l-1.1-14.4h23.8L865,276.7z M873.6,262.3H897l-2.4,14.4H873L873.6,262.3z M863.8,306.5
		l-0.6,14.8h-16.7l-1.2-14.8H863.8z M871.8,306.5h17.8l-2.5,14.8h-15.9L871.8,306.5z M872.1,298.5l0.6-13.8h20.6l-2.3,13.8H872.1z
		 M901.4,284.7h20.7l-4.4,13.8h-18.6L901.4,284.7z M924.6,276.7h-21.9l2.4-14.4h24.1L924.6,276.7z M833.8,262.3l1.1,14.4h-15.7
		l-1.5-14.4H833.8z M830.3,360.8c0,4.1-3.4,7.5-7.5,7.5s-7.5-3.4-7.5-7.5s3.4-7.5,7.5-7.5S830.3,356.7,830.3,360.8z M919.6,360.8
		c0,4.1-3.4,7.5-7.5,7.5s-7.5-3.4-7.5-7.5s3.4-7.5,7.5-7.5S919.6,356.7,919.6,360.8z M822.3,306.5h15l1.2,14.8h-14.6L822.3,306.5z
		 M895.2,321.3l2.5-14.8h17.4l-4.7,14.8H895.2z"/>
	<path fill="#FFFFFF" d="M1271.5,349.9c-1.7-8.7-9.3-15.3-18.5-15.3h-14c21.9-10.8,36.9-33.3,36.9-59.2v-17c0-2.2-1.8-4-4-4h-120
		v-7.5c0-1.7-1-3.1-2.6-3.7l-27.7-10.5l-2.8,7.5l25.1,9.5v8.7v17c0,26,15.1,48.5,36.9,59.2H1166c-9.2,0-16.8,6.6-18.5,15.3
		c-6.8,1.6-11.8,7.8-11.8,15c0,8.5,7,15.5,15.5,15.5s15.5-7,15.5-15.5c0-7-4.6-12.9-11-14.8c1.4-4.4,5.5-7.5,10.3-7.5h87
		c4.8,0,8.9,3.2,10.3,7.5c-6.3,1.9-11,7.8-11,14.8c0,8.5,7,15.5,15.5,15.5s15.5-7,15.5-15.5C1283.3,357.6,1278.3,351.5,1271.5,349.9
		z M1158.7,364.9c0,4.1-3.4,7.5-7.5,7.5s-7.5-3.4-7.5-7.5s3.4-7.5,7.5-7.5S1158.7,360.8,1158.7,364.9z M1159.8,294.6l10.9,10.9l-6,6
		c-3.3-4.1-6.1-8.7-8.2-13.7L1159.8,294.6z M1153.7,289.4c-0.1-0.4-0.2-0.8-0.3-1.2l0.7,0.7L1153.7,289.4z M1192,262.3h1.8l10,10
		l-10.9,10.9l-10.9-10.9L1192,262.3z M1176.4,266.7l-4.4-4.4h8.7L1176.4,266.7z M1227,262.3l10,10l-10.9,10.9l-10.9-10.9l10-10H1227
		z M1238.3,262.3h8.7l-4.4,4.4L1238.3,262.3z M1263.1,298.4c-2.1,4.9-4.9,9.5-8.3,13.6l-6.5-6.5l10.9-10.9L1263.1,298.4z
		 M1264.9,288.9l1.9-1.9c-0.2,1-0.4,2-0.7,3L1264.9,288.9z M1209.5,299.8l-10.9-10.9l10.9-10.9l10.9,10.9L1209.5,299.8z
		 M1226.1,294.6l10.9,10.9l-10.9,10.9l-10.9-10.9L1226.1,294.6z M1203.9,305.5l-10.9,10.9l-10.9-10.9l10.9-10.9L1203.9,305.5z
		 M1209.5,311.1l10.9,10.9l-10.9,10.9l-10.9-10.9L1209.5,311.1z M1226.1,327.7l2.5,2.5c-2.3,0.8-4.6,1.4-7,1.9L1226.1,327.7z
		 M1236.5,326.8l-4.8-4.8l10.9-10.9l6.7,6.7C1245.5,321.4,1241.2,324.4,1236.5,326.8z M1242.7,299.8l-10.9-10.9l10.9-10.9l10.9,10.9
		L1242.7,299.8z M1209.5,266.7l-4.4-4.4h8.7L1209.5,266.7z M1187.3,288.9l-10.9,10.9l-10.9-10.9l10.9-10.9L1187.3,288.9z
		 M1176.4,311.1l10.9,10.9l-4.5,4.5c-4.6-2.5-8.9-5.6-12.7-9.1L1176.4,311.1z M1192.9,327.7l4.2,4.2c-2.2-0.5-4.4-1.1-6.5-1.9
		L1192.9,327.7z M1267.9,274.5l-8.7,8.7l-10.9-10.9l10-10h9.6V274.5z M1160.7,262.3l10,10l-10.9,10.9l-7.8-7.8c0,0,0,0,0-0.1v-13
		H1160.7z M1267.8,372.4c-4.1,0-7.5-3.4-7.5-7.5s3.4-7.5,7.5-7.5s7.5,3.4,7.5,7.5S1272,372.4,1267.8,372.4z"/>
	<g>
		<path fill="#FFFFFF" d="M151.8,700.3h7.4h99.4c1.9,0,3.6-1.4,3.9-3.3l8.8-48.2c0.4-2.1-1-4.2-3.1-4.6l-118.9-24.5l-2.2-12.3
			c-0.3-1.9-2-3.3-3.9-3.3h-19v8h15.7l2.1,11.7l0,0c0,0,0,0,0,0l12.5,68.5h-2.6c-7.7,0-14,6.3-14,14s6.3,14,14,14H247
			c4.1,0,7.5,3.4,7.5,7.5h8c0-8.5-7-15.5-15.5-15.5h-95.3c-3.3,0-6-2.7-6-6S148.4,700.3,151.8,700.3z M213.3,692.3h-14.3l-1.2-54.4
			l17.5,3.6L213.3,692.3z M223.3,643.2l14.3,2.9l-3.1,46.2h-13.2L223.3,643.2z M191.1,692.3h-13.1l-5.7-59.7l17.6,3.6L191.1,692.3z
			 M255.2,692.3h-12.7l3-44.6l17.1,3.5L255.2,692.3z M150.8,628.2l13.3,2.7l5.8,61.4h-7.4L150.8,628.2z"/>
		<path fill="#FFFFFF" d="M162.2,722.1c-8.5,0-15.5,7-15.5,15.5s7,15.5,15.5,15.5s15.5-7,15.5-15.5S170.8,722.1,162.2,722.1z
			 M162.2,745.1c-4.1,0-7.5-3.4-7.5-7.5s3.4-7.5,7.5-7.5s7.5,3.4,7.5,7.5S166.4,745.1,162.2,745.1z"/>
		<path fill="#FFFFFF" d="M238,722.1c-8.5,0-15.5,7-15.5,15.5s7,15.5,15.5,15.5s15.5-7,15.5-15.5S246.6,722.1,238,722.1z M238,745.1
			c-4.1,0-7.5-3.4-7.5-7.5s3.4-7.5,7.5-7.5s7.5,3.4,7.5,7.5S242.2,745.1,238,745.1z"/>
	</g>
	<g>
		<path fill="#FFFFFF" d="M605,628.5H486.3V614c0-1.9-1.3-3.5-3.2-3.9l-32.3-6.5l-1.6,7.8l29.1,5.9v15.2V651v52c0,2.2,1.8,4,4,4H605
			c2.2,0,4-1.8,4-4v-70.5C609,630.3,607.2,628.5,605,628.5z M601,651h-16.8v-14.5H601V651z M486.3,659h16.1v16h-16.1V659z
			 M510.5,659H527v16h-16.6V659z M551.6,651H535v-14.5h16.6V651z M559.6,636.5h16.6V651h-16.6V636.5z M551.6,659v16H535v-16H551.6z
			 M527,651h-16.6v-14.5H527V651z M527,683v16h-16.6v-16H527z M535,683h16.6v16H535V683z M559.6,683h16.6v16h-16.6V683z M559.6,675
			v-16h16.6v16H559.6z M584.2,659H601v16h-16.8V659z M502.5,636.5V651h-16.1v-14.5H502.5z M486.3,683h16.1v16h-16.1V683z M584.2,699
			v-16H601v16H584.2z"/>
		<path fill="#FFFFFF" d="M584.4,713h-81.5c-13.5,0-24.6,11-24.6,24.6h8c0-9.1,7.4-16.6,16.6-16.6h81.5c9.1,0,16.6,7.4,16.6,16.6h8
			C609,724,598,713,584.4,713z"/>
		<path fill="#FFFFFF" d="M506.5,723.3c-8.5,0-15.5,7-15.5,15.5s7,15.5,15.5,15.5s15.5-7,15.5-15.5S515,723.3,506.5,723.3z
			 M506.5,746.3c-4.1,0-7.5-3.4-7.5-7.5s3.4-7.5,7.5-7.5s7.5,3.4,7.5,7.5S510.6,746.3,506.5,746.3z"/>
		<path fill="#FFFFFF" d="M580.2,723.3c-8.5,0-15.5,7-15.5,15.5s7,15.5,15.5,15.5s15.5-7,15.5-15.5S588.7,723.3,580.2,723.3z
			 M580.2,746.3c-4.1,0-7.5-3.4-7.5-7.5s3.4-7.5,7.5-7.5s7.5,3.4,7.5,7.5S584.3,746.3,580.2,746.3z"/>
	</g>
	<path fill="#FFFFFF" d="M818.3,706.9l107.4-19.9c1.5-0.3,2.7-1.4,3.1-2.8l16.7-57.3c0.4-1.2,0.1-2.6-0.7-3.6c-0.8-1-2-1.6-3.3-1.5
		l-130.8,6.7l-0.9-6.6c-0.2-1.7-1.5-3-3.1-3.3l-33.4-7.3l-1.7,7.8l30.7,6.7l10.7,74.7l-20.6,7.6c-1.6,0.6-2.6,2.1-2.6,3.8v27.1
		c0,2.2,1.8,4,4,4h8.7c1.8,6.6,7.8,11.5,15,11.5s13.2-4.9,15-11.5h69.5c1.8,6.6,7.8,11.5,15,11.5s13.2-4.9,15-11.5h10v-8h-10
		c-1.8-6.6-7.8-11.5-15-11.5s-13.2,4.9-15,11.5h-69.5c-1.8-6.6-7.8-11.5-15-11.5s-13.2,4.9-15,11.5h-4.7v-20.3L818.3,706.9z
		 M928,658.3l-110.8,16.2l-2.3-15.9l116.2-11.3L928,658.3z M820.7,698.3l-2.3-15.9l107.2-15.6l-3.7,12.8L820.7,698.3z M936.3,629.9
		l-2.6,9.1l-119.8,11.6l-2-14.4L936.3,629.9z M916.7,731.3c4.1,0,7.5,3.4,7.5,7.5s-3.4,7.5-7.5,7.5s-7.5-3.4-7.5-7.5
		S912.6,731.3,916.7,731.3z M817.3,731.3c4.1,0,7.5,3.4,7.5,7.5s-3.4,7.5-7.5,7.5s-7.5-3.4-7.5-7.5S813.1,731.3,817.3,731.3z"/>
	<path fill="#FFFFFF" d="M1166.6,707h82.3c1.8,0,3.4-1.2,3.9-3l19.9-77.3c0.3-1.2,0-2.5-0.7-3.4c-0.8-1-1.9-1.5-3.2-1.5h-121
		l-1.7-6.1c-2.2-8-9.6-13.5-17.8-13.5h-1c-10.2,0-18.5,8.3-18.5,18.5h8c0-5.8,4.7-10.5,10.5-10.5h1c4.7,0,8.8,3.2,10.1,7.7l2.5,9.1
		l19.4,75.4l-15.6,20.5c-2.9,3.8-3.4,8.9-1.3,13.2c1.6,3.2,4.4,5.5,7.7,6.5c1.6,6.9,7.7,12,15.1,12c7.2,0,13.2-4.9,15-11.5h53.4
		c1.8,6.6,7.8,11.5,15,11.5c8.5,0,15.5-7,15.5-15.5s-7-15.5-15.5-15.5c-7.2,0-13.2,4.9-15,11.5h-53.4c-1.8-6.6-7.8-11.5-15-11.5
		c-6.7,0-12.4,4.3-14.6,10.3c-0.4-0.4-0.7-0.8-1-1.3c-0.8-1.6-0.6-3.4,0.5-4.8L1166.6,707z M1245.9,699h-78.1l-7.9-30.7h93.8
		L1245.9,699z M1263.7,629.7l-7.9,30.7h-97.9l-7.9-30.7H1263.7z M1249.5,731.3c4.1,0,7.5,3.4,7.5,7.5s-3.4,7.5-7.5,7.5
		s-7.5-3.4-7.5-7.5S1245.4,731.3,1249.5,731.3z M1166.2,731.3c4.1,0,7.5,3.4,7.5,7.5s-3.4,7.5-7.5,7.5s-7.5-3.4-7.5-7.5
		S1162.1,731.3,1166.2,731.3z"/>
</g>
</svg>
